<svg id="Capa_1" data-name="Capa 1" xmlns="http://www.w3.org/2000/svg" viewBox="0 0 709.22 169.94"><defs><style>.cls-1,.cls-2{fill:#fff;}.cls-2{font-size:48px;font-family:BodoniSvtyTwoSCITCTT-Book, "Bodoni 72 Smallcaps";}</style></defs><path class="cls-1" d="M46.86,2.06c-19.3,6.7-38.9,29.7-45,53-5.5,20.9,1.6,40.3,16.3,44.5,14.5,4.2,32.1-3.6,39.1-17.5,2.9-5.5,3.7-12.1,1.8-14.5s-2.9-1.7-6.5,4.7c-4.4,7.8-10.6,14.7-16.8,18.9-4.6,3.1-6.5,3.8-10.6,3.8-4.3,0-5.4-.4-8.3-3.3-5.4-5.4-6.7-14.9-3.9-28.4,4.5-21.8,22.1-44.5,41.5-53.3,5.9-2.6,8.7-2.6,10,.3.9,1.9.4,4.4-2.6,13.1-2.8,7.9-3.6,11.7-3.2,14.3.6,3.7,4.1,8.3,6.2,8.3,1.5,0,9.5-19.1,10.2-24.1s-1.3-10.4-5.5-15.1C63-.54,57.66-1.64,46.86,2.06Z"/><path class="cls-1" d="M229.56,7.16c-4.4,6.9-14,23.7-19.3,33.7-3.3,6.4-3.3,6.4-4.1,3.4-1.8-7-9.2-8.7-18.3-4.3-10.9,5.3-25.5,22.6-29.7,35.2-6.6,19.9-26,30.6-23.2,12.8.3-2.1,3-8.2,6-13.6,10.9-20,12.7-24.1,11.9-28-.8-4.5-4.6-8.4-8-8.4-3.8,0-9.5,3.3-16,9.2l-5.7,5.2.6-4.1c.8-4.3-1.3-11.3-3.4-11.3-2.3,0-19.9,30.2-24.8,42.4-4.5,11.5-15.2,20.3-19.8,16.5-3.1-2.6-1.1-9.4,8-27.2,6.5-12.6,8.6-17.7,8.6-20.7,0-5-1.9-9.2-3.9-8.8-3.5.7-19.4,29-22.7,40.3-2.3,8.2-1.6,15.8,2,19.3,2.3,2.4,3.4,2.7,8.9,2.7,4.8,0,7.2-.6,10.8-2.6l4.6-2.6,1.6,2.9c.9,1.5,2.1,2.8,2.7,2.8s3.7-5.6,7.1-12.5c10.3-21.2,19.7-33.3,31.7-40.9,7.4-4.7,7.9-3.2,2.1,6.9-11.8,20.5-15.3,30.8-13,38.5,3.1,10.3,18.8,10.9,29.5,1.1,1.8-1.7,3-2.2,3.3-1.4,1.1,3.1,4.8,6.4,8.4,7.4,5.3,1.6,10.5,0,17.3-5.5l5.3-4.4,1.2,3.5c2.9,8,14.7,9.8,23.6,3.5l4.5-3.2,2.9,3.2c2.5,2.8,3.5,3.2,7.7,3.2,4.6,0,8-1.3,13.2-5l2.2-1.7-1.8,4.4c-1.6,3.7-2.8,4.8-8.8,7.9-14.5,7.3-22.4,24.1-26.5,34.8-2.5,6.9-2.1,12.5,1.6,18.9,4.3,7.3,9.7,7.1,17.9-.7,6.2-5.9,12.6-16.4,19.9-32.9l5.5-21.4,8.9-4.3c13.9-6.9,24.3-17.6,24.3-25.2,0-3-2.4-2.8-4.4.3-4,6.1-23.7,22.7-25.2,21.3-.2-.3,4.6-10.7,10.8-23.1,12.4-25.4,14-30.9,9.9-35.7l-2.1-2.5-1.9,2.5a121.47,121.47,0,0,0-6.7,11c-18.2,33-23.8,41.3-29.9,44.5-10.9,5.9-8.4-9.5,5.3-31.6,5.1-8.4,7.5-15.4,6.7-19.5-.6-3.7-2.8-5.9-4.9-5.1-3.7,1.4-16.7,24.2-22,38.7-3.1,8.2-4.3,10.2-9.1,14.8-4.6,4.5-5.9,5.3-8.7,5-3.2-.3-3.3-.4-3.2-5,0-5.5,5.9-17.6,24.3-50.1,5.9-10.6,11.6-21.2,12.5-23.7,2.8-7,2.3-17-.8-17C234.16,1,231.76,3.76,229.56,7.16Zm-28.2,42.5c0,2.1-1.6,7.5-3.4,12-7.6,18.5-19.9,34.3-26.5,34.3-2.4,0-3.2-.5-3.7-2.5-2.6-10.3,11.5-35.2,25-44.3C199.36,44.76,201.36,44.86,201.36,49.66Zm29,83.2c-5.9,11.4-14,23-16.7,23.9-.9.2-1.3-.8-1.3-3.5,0-4.6,4.4-14.1,9.3-20.2,3.4-4.3,12.4-21.1,14-21.1C236.16,112,233.66,126.36,230.36,132.86Z"/><path class="cls-1" d="M368.66,2c-2.3.5-7.7,2-12,3.3a128.31,128.31,0,0,1-14,3.7c-4.5.9-6.3,1.7-6.3,2.8,0,2.2,5,7.2,7.2,7.2,1,0,1.8.4,1.8.8s-2.3,4.7-5.1,9.3c-7.4,12.3-22.4,43.2-25.5,52.4-2.9,8.7-2.9,15.4,0,18.3,2.1,2.1,2.8,1.3,6.9-8.3,1.9-4.4,5.1-11.5,7.1-15.7,3.5-7.7,3.6-7.8,6.3-6.7,3.7,1.4,9.9.4,19.6-3.2,23.4-8.5,39.1-26,38.9-43.5-.1-9.7-5.7-18.1-13.7-20.3C375.36.86,374.56.86,368.66,2Zm15.4,12.2c.7.6,1.3,3.1,1.3,5.6,0,15-21.6,33.1-45.7,38.5-2.7.6-2.9,1.2,7.1-16.3,3.7-6.3,7.5-14.1,8.5-17.4,2-6.6,3-7.3,15.6-10.7C377.76,12.06,381.66,12.16,384.06,14.16Z"/><path class="cls-1" d="M93.56,23.56c-2.7,1.8-3.5,5.9-2.2,10,1.9,5.5,7.6,7.3,10.4,3.2C106.36,30.26,99.56,19.36,93.56,23.56Z"/><path class="cls-1" d="M447.46,30.56c-7.5,6.7-10.2,16.5-6,21l2.1,2.3-4.2,7.8c-11.5,21.2-26.5,35.3-37.6,35.3-6.8,0-11.2-7.5-9.9-16.9.9-7,1.5-7.4,6-5.1a18.75,18.75,0,0,0,16.5,0c8.1-4.1,16.1-18.5,14.5-25.9-1.1-4.9-10.4-12.1-15.7-12.1-3.9,0-12.1,4.5-17,9.3-20.6,20-21.8,48.6-2.1,54.3,6.6,1.9,11.7,1.4,19.3-2.2,11-5.1,21.3-16.3,31.5-34.4,4.7-8.3,6.1-10,8.1-10a30.53,30.53,0,0,0,7.6-2c2.9-1.1,5.4-2,5.6-2s-2.3,3.3-5.3,7.2c-8.5,11.1-12.8,20.5-12.9,28.1-.1,10.1,5.6,16.7,14.4,16.7,5,0,13.3-4.2,16.6-8.4,3-3.8,4.4-4.5,4.4-2.3,0,2,7.1,8.3,10.9,9.6,8,2.6,19.3.5,28-5.3l5-3.4,1,2.8c2.4,7.1,11.5,8.5,20,3.2,2.9-1.8,5.1-2.9,4.9-2.5s-.9,2.4-1.7,4.4c-1.1,3-2.7,4.2-9.9,7.9-24.1,12.3-34,43.2-21.1,56.1,8,8,22.4-16.3,35.8-46.8l5.2-11.8,7.2-3.8c15.1-7.7,26.4-19.7,35.5-37.5,3.7-7.3,5.2-9.4,7.2-9.7,1.4-.3,5-1.3,8.1-2.3l5.6-1.8-6.5,8.5c-7.9,10.4-11.3,17.7-11.9,25.6-1.2,16.9,15.5,23.4,29.3,11.2,2.8-2.4,4.4-3.3,4.4-2.4,0,2.7,5.5,7.5,9.4,8.2,5,1,11.8-1.7,17.2-6.7l4.3-4,1.4,3.4c3.1,7.5,12.1,10.1,20.5,6.1,8.1-3.8,16.9-16.1,16-22.3-.6-4.1-2.5-3.2-5.9,2.7a66.89,66.89,0,0,1-8.5,11.1c-4.3,4.3-5.9,5.2-8.7,5.2-7.3,0-5.5-7.9,6.2-28.5,9.3-16.2,11.1-22.1,8.8-27.8-.9-2-2.3-3.7-3.1-3.7s-2.8,2.3-4.4,5.1l-3,5.2-.7-3.1c-2.3-10.4-15.8-9.1-28.8,2.8-8.6,7.9-13.9,15.3-20.2,28.4-6.6,13.9-13.1,21.6-18.3,21.6a5,5,0,0,1-4.8-2.5c-3.7-5.6,1.4-18.6,12.7-32.6a81.65,81.65,0,0,0,7-9.7c1.1-2.9-.3-8.6-3-12.2l-2-2.5-7,3.8c-6.1,3.3-13.1,6.1-13.1,5.3,0-.1.7-2.6,1.6-5.5a32.75,32.75,0,0,0,1.2-9.4c-.3-3.5-.7-4.3-2.7-4.5-3.4-.5-11.4,8.1-13.5,14.5-1.7,5.1-1.4,7.4,1.5,11.3,2.1,3-8,20.7-17.6,30.9-5,5.4-16.2,13.7-17.2,12.8-.2-.3,4.5-10.8,10.6-23.4,9.3-19,11.1-23.6,11.1-27.4,0-3-.6-5.5-1.8-6.9l-1.9-2.3-2.5,3.4c-1.5,1.9-6.5,10.6-11.3,19.3-14.1,26-22.7,37-28.5,36.4-2.2-.3-2.5-.8-2.8-5s.5-6.2,6.4-17.5c3.7-7,7.8-14.9,9.1-17.5,4.2-8,3.7-16.7-1-17.6-3-.6-19.3,27.2-22.9,39-1.4,4.9-10.4,13.9-17.1,17.3-7.2,3.5-12.9,3.4-16.8-.4-2.6-2.6-2.9-3.7-2.9-8.9a65.77,65.77,0,0,1,.6-9l.6-3.1,4.2,2.2c9.3,4.9,19.6,1.3,27-9.6,3.2-4.6,4-6.8,4.4-11.5.5-6.5-1.1-9.2-8.1-14.3-4.9-3.5-8.5-3.7-15.3-.5-11.8,5.5-22,20.4-25.8,37.8-.9,4-8.7,15-12.5,17.5-6.8,4.6-10.6,2.3-10.4-6.2.2-7.6,5.5-17.5,16.6-30.9,4.4-5.3,4.9-6.4,4.4-9.7-.6-4.3-4.1-9.9-6.3-9.9-.8,0-3.1,1.1-5.2,2.5-3.3,2.2-11.3,5.5-13.2,5.5-.5,0-.2-2.1.6-4.7,1.6-5.3,2.1-11.4,1-13.1C454.66,26,451.46,27,447.46,30.56Zm-27.1,16.2c0,3.5-5.5,12.8-10.6,17.9-4.6,4.6-5.8,5.3-9.2,5.3a12.3,12.3,0,0,1-4.5-.6c-1.4-1.4,5-11.3,11.3-17.6,5.5-5.5,7.4-6.8,9.9-6.8C419.56,45,420.36,45.46,420.36,46.76Zm101,.9c0,3.7-5.2,12.5-10.4,17.8-4.5,4.4-8.5,5.9-12.3,4.4-2.8-1-2.5-1.9,4.4-11.6,5-7.1,12.4-13.3,15.9-13.3C520.86,45,521.36,45.46,521.36,47.66Zm163.8,3.4c-1.3,13.5-22.4,44.9-30.3,44.9-13.3,0,8-42.1,24.9-49.5C684.46,44.46,685.66,45.46,685.16,51.06Zm-140.9,65.5c-4.9,11.5-18.3,40.4-21.1,40.4-1.8,0-.2-8.6,2.7-14.7,2.8-5.7,17-30.3,19.3-30.3C545.86,112,545.46,113.86,544.26,116.56Z"/><text class="cls-2" transform="translate(290.58 157.37)">Make Up</text></svg>